#!OML:ASF I:\Random Stuff\random\construction\7_22_03\Session 2\subj1.ASF
:FULLY-SPECIFIED
:DEGREES
672
root -10.9357 17.705 -8.93639 -0.571447 59.078 346.353
lowerback 5.43078 1.1437 -4.34089
upperback 0.51292 1.26707 -0.0549235
thorax -2.60972 0.680951 2.28207
lowerneck -14.5487 -12.5235 -13.0224
upperneck 31.4809 -19.8416 15.8487
head 17.1146 -7.88576 5.09749
rclavicle -7.31528e-014 -2.22639e-014
rhumerus -25.9543 24.528 -93.6442
rradius 89.7432
rwrist -31.3388
rhand -45.4976 18.66
rfingers 7.12502
rthumb -18.2624 -10.5027
lclavicle -7.31528e-014 -2.22639e-014
lhumerus -18.3648 -25.9012 87.3126
lradius 101.667
lwrist 22.5042
lhand -20.8271 72.5388
lfingers 7.12502
lthumb 5.54129 -822.446
rfemur -13.2421 -10.5595 26.9295
rtibia 18.4825
rfoot -25.5869 -46.3613
rtoes 38.0885
lfemur -28.8816 5.56467 -15.1961
ltibia 29.8085
lfoot -17.9776 30.6652
ltoes 4.10533
673
root -11.003 17.6956 -8.87881 0.340046 58.1948 347.752
lowerback 4.98081 0.722688 -4.45782
upperback 0.387759 0.722506 0.109213
thorax -2.45092 0.410034 2.56361
lowerneck -14.0637 -12.886 -13.5278
upperneck 31.3857 -20.2598 15.6704
head 17.0762 -8.17919 5.00408
rclavicle -5.40694e-014 7.95139e-015
rhumerus -26.7785 24.3636 -93.655
rradius 90.854
rwrist -29.7304
rhand -45.8518 17.3459
rfingers 7.12502
rthumb -18.6032 -11.7845
lclavicle -5.40694e-014 7.95139e-015
lhumerus -19.1243 -25.5444 87.7721
lradius 102.706
lwrist 22.3214
lhand -20.2308 72.8097
lfingers 7.12502
lthumb 6.11696 -822.701
rfemur -13.3485 -10.6534 26.6702
rtibia 18.6802
rfoot -25.5272 -46.5032
rtoes 37.2264
lfemur -28.1766 4.6948 -15.164
ltibia 29.5335
lfoot -19.0351 31.9317
ltoes 6.40691
674
root -11.0761 17.6844 -8.81658 0.930546 57.2982 348.879
lowerback 4.54622 0.306623 -4.44851
upperback 0.345952 0.193658 0.307587
thorax -2.20979 0.14229 2.80167
lowerneck -14.4574 -13.3238 -14.0203
upperneck 32.2037 -20.7781 15.216
head 17.7175 -8.45282 4.76284
rclavicle -5.62561e-014 6.36111e-015
rhumerus -27.2843 24.4429 -93.5628
rradius 91.5722
rwrist -28.8806
rhand -45.5488 16.7762
rfingers 7.12502
rthumb -18.3117 -12.3819
lclavicle -5.62561e-014 6.36111e-015
lhumerus -19.7133 -25.1268 88.0967
lradius 103.567
lwrist 21.9324
lhand -19.2606 73.0306
lfingers 7.12502
lthumb 7.05359 -822.893
rfemur -13.1686 -10.5413 26.4313
rtibia 18.7388
rfoot -25.0124 -46.3259
rtoes 36.0429
lfemur -27.4138 3.86494 -15.0005
ltibia 29.3138
lfoot -20.1895 33.0217
ltoes 9.06594
675
root -11.1527 17.6722 -8.74947 1.26821 56.3406 349.81
lowerback 4.35218 -0.117844 -4.34726
upperback 0.212231 -0.356051 0.543746
thorax -2.19309 -0.130401 3.02291
lowerneck -13.8368 -13.4161 -14.5153
upperneck 32.0875 -20.833 15.1595
head 17.5758 -8.58993 4.82451
rclavicle -2.96189e-014 -7.15625e-015
rhumerus -27.8064 24.5649 -93.5482
rradius 92.0555
rwrist -28.7621
rhand -44.7699 17.0038
rfingers 7.12502
rthumb -17.5622 -12.2229
lclavicle -2.96189e-014 -7.15625e-015
lhumerus -20.5352 -24.8136 88.5303
lradius 104.317
lwrist 22.466
lhand -20.4339 72.5325
lfingers 7.12502
lthumb 5.92089 -822.43
rfemur -12.7316 -10.1602 26.2034
rtibia 18.6718
rfoot -25.0058 -45.7978
rtoes 35.4079
lfemur -26.5827 2.97665 -14.7171
ltibia 29.1435
lfoot -21.5293 34.182
ltoes 11.3449
676
root -11.2341 17.6567 -8.67354 1.75839 55.2801 350.921
lowerback 4.1939 -0.530255 -4.41203
upperback 0.0366333 -0.901385 0.743398
thorax -2.23528 -0.397224 3.29766
lowerneck -13.3896 -13.6155 -15.0451
upperneck 32.1864 -21.0328 14.9847
head 17.6119 -8.785 4.80096
rclavicle 1.37559e-013 -1.90833e-014
rhumerus -28.279 24.7803 -93.6275
rradius 92.565
rwrist -28.6812
rhand -43.9539 16.9408
rfingers 7.12502
rthumb -16.7768 -12.3544
lclavicle 1.37559e-013 -1.90833e-014
lhumerus -21.3872 -24.2318 88.875
lradius 105.036
lwrist 22.5407
lhand -20.7818 72.3581
lfingers 7.12502
lthumb 5.58503 -822.265
rfemur -12.1959 -9.62621 25.8477
rtibia 18.5338
rfoot -23.5734 -45.3259
rtoes 32.4751
lfemur -25.7163 1.57557 -14.4323
ltibia 28.9875
lfoot -23.4056 35.7636
ltoes 13.8168
677
root -11.3187 17.6369 -8.59256 2.28623 54.1675 352.105
lowerback 4.02336 -0.95968 -4.51571
upperback -0.0998007 -1.47002 0.922643
thorax -2.22231 -0.677146 3.57165
lowerneck -12.985 -13.9474 -15.5503
upperneck 32.2307 -21.4556 14.8331
head 17.6834 -9.06376 4.71762
rclavicle 3.598e-014 1.03368e-014
rhumerus -28.7202 25.251 -93.7526
rradius 93.1694
rwrist -28.3283
rhand -43.3674 16.4659
rfingers 7.12502
rthumb -16.2121 -12.8762
lclavicle 3.598e-014 1.03368e-014
lhumerus -22.2085 -23.3878 89.106
lradius 105.809
lwrist 22.6253
lhand -20.5325 72.554
lfingers 7.12502
lthumb 5.82568 -822.454
rfemur -11.6546 -9.20081 25.4529
rtibia 18.4053
rfoot -23.1226 -44.4779
rtoes 31.4598
lfemur -24.7941 0.0311231 -14.2186
ltibia 28.8141
lfoot -26.1285 37.0977
ltoes 17.929
678
root -11.4106 17.6207 -8.50939 2.65778 52.9121 353.081
lowerback 3.87146 -1.36085 -4.51895
upperback -0.226631 -1.99594 1.14263
thorax -2.21028 -0.936815 3.82668
lowerneck -12.7683 -13.9834 -16.0789
upperneck 32.3288 -21.4272 14.7702
head 17.7494 -9.13954 4.79302
rclavicle -2.28602e-015 1.90833e-014
rhumerus -29.0709 25.9505 -93.8435
rradius 93.7153
rwrist -28.1416
rhand -43.154 16.168
rfingers 7.12502
rthumb -16.0067 -13.1908
lclavicle -2.28602e-015 1.90833e-014
lhumerus -22.994 -22.4845 89.325
lradius 106.581
lwrist 22.9523
lhand -20.3419 73.1172
lfingers 7.12502
lthumb 6.00974 -823.012
rfemur -11.2455 -8.68233 25.2313
rtibia 18.3106
rfoot -22.8248 -43.7669
rtoes 31.2162
lfemur -23.8855 -1.31637 -13.9258
ltibia 28.6319
lfoot -29.4514 37.9439
ltoes 22.9232
679
root -11.5087 17.6112 -8.42635 2.93185 51.4554 353.898
lowerback 3.75347 -1.67273 -4.45051
upperback -0.353682 -2.4008 1.36964
thorax -2.22826 -1.13601 4.0419
lowerneck -12.4881 -14.0783 -16.5349
upperneck 32.2691 -21.4823 14.6759
head 17.7138 -9.25206 4.81431
rclavicle 6.07287e-014 1.66979e-014
rhumerus -29.1251 26.7547 -93.8734
rradius 94.0516
rwrist -28.0916
rhand -43.1498 16.138
rfingers 7.12502
rthumb -16.0027 -13.221
lclavicle 6.07287e-014 1.66979e-014
lhumerus -23.6775 -21.6628 89.5339
lradius 107.216
lwrist 23.0969
lhand -20.4591 73.5453
lfingers 7.12502
lthumb 5.89662 -823.443
rfemur -10.9613 -8.03335 25.1398
rtibia 18.2227
rfoot -22.0707 -43.1771
rtoes 30.6124
lfemur -23.0159 -2.45512 -13.5743
ltibia 28.4922
lfoot -32.6124 38.6521
ltoes 26.6756
680
root -11.6082 17.6069 -8.3449 3.11788 49.8323 354.545
lowerback 3.61589 -1.91204 -4.24444
upperback -0.462106 -2.70165 1.58689
thorax -2.23114 -1.28572 4.16225
lowerneck -12.2222 -14.1802 -16.7347
upperneck 32.0429 -21.5225 14.4216
head 17.5117 -9.34883 4.7167
rclavicle -1.0794e-013 6.75868e-015
rhumerus -29.0236 27.3931 -93.9207
rradius 94.342
rwrist -27.8926
rhand -43.0883 15.9046
rfingers 7.12502
rthumb -15.9434 -13.4591
lclavicle -1.0794e-013 6.75868e-015
lhumerus -24.2388 -20.8253 89.6329
lradius 107.858
lwrist 22.8437
lhand -20.2706 74.2466
lfingers 7.12502
lthumb 6.0786 -824.139
rfemur -10.7099 -7.31878 25.1653
rtibia 18.0528
rfoot -21.1096 -42.5035
rtoes 29.9733
lfemur -22.1943 -3.36764 -13.1669
ltibia 28.4453
lfoot -35.8698 39
ltoes 30.2387
681
root -11.7128 17.6039 -8.26347 3.09661 47.9813 354.831
lowerback 3.41954 -2.05338 -3.77703
upperback -0.533168 -2.85815 1.79861
thorax -2.18962 -1.36844 4.1187
lowerneck -12.0044 -14.2945 -16.6538
upperneck 31.6514 -21.5957 14.1049
head 17.1851 -9.43427 4.53214
rclavicle 3.16565e-014 -1.78906e-014
rhumerus -28.9311 27.9398 -93.998
rradius 94.7078
rwrist -27.8232
rhand -42.6632 15.3271
rfingers 7.12502
rthumb -15.534 -14.0689
lclavicle 3.16565e-014 -1.78906e-014
lhumerus -24.7369 -20.1146 89.6336
lradius 108.594
lwrist 22.5186
lhand -20.0277 75.1918
lfingers 7.12502
lthumb 6.31308 -825.078
rfemur -10.4872 -6.36981 25.4664
rtibia 17.7473
rfoot -20.1753 -41.7806
rtoes 29.7048
lfemur -21.4793 -3.48466 -12.583
ltibia 28.5237
lfoot -38.5029 38.8403
ltoes 33.2323
682
root -11.8196 17.6017 -8.18379 2.97205 46.0823 354.935
lowerback 3.18065 -2.12635 -3.04326
upperback -0.518425 -2.91496 1.90688
thorax -2.06469 -1.40822 3.80878
lowerneck -12.0413 -14.3965 -16.3646
upperneck 31.4345 -21.7017 13.8002
head 16.9942 -9.48774 4.31064
rclavicle 5.99336e-014 0
rhumerus -28.6499 28.3205 -94.0668
rradius 95.0473
rwrist -27.7683
rhand -42.4065 14.9025
rfingers 7.12502
rthumb -15.2867 -14.5125
lclavicle 5.99336e-014 0
lhumerus -25.1065 -19.8046 89.5323
lradius 109.361
lwrist 22.7874
lhand -20.7862 75.4477
lfingers 7.12502
lthumb 5.58077 -825.354
rfemur -10.2202 -5.43136 25.9089
rtibia 17.2798
rfoot -19.0699 -40.9731
rtoes 29.2682
lfemur -20.901 -2.55428 -11.9523
ltibia 28.7541
lfoot -38.984 38.7506
ltoes 33.5022
683
root -11.9264 17.6009 -8.09917 2.81066 44.1956 355.254
lowerback 3.1157 -2.19338 -2.50018
upperback -0.416385 -2.97988 1.94993
thorax -1.94229 -1.45033 3.54457
lowerneck -12.1631 -14.3719 -16.1229
upperneck 31.3475 -21.6471 13.6019
head 16.8868 -9.461 4.18901
rclavicle 6.09772e-014 1.11319e-014
rhumerus -28.2916 28.6583 -94.1528
rradius 95.3599
rwrist -27.5748
rhand -42.6598 14.5297
rfingers 7.12502
rthumb -15.5307 -14.8666
lclavicle 6.09772e-014 1.11319e-014
lhumerus -25.3955 -19.453 89.3069
lradius 110.174
lwrist 23.0664
lhand -21.2809 75.8562
lfingers 7.12502
lthumb 5.1031 -825.775
rfemur -9.61687 -4.71578 26.1796
rtibia 16.6645
rfoot -17.9047 -40.0484
rtoes 28.414
lfemur -20.1646 -0.878165 -11.4947
ltibia 29.1508
lfoot -37.5663 38.6585
ltoes 31.8612
684
root -12.0414 17.596 -8.00019 2.43372 42.1319 355.657
lowerback 3.33764 -2.21042 -2.3395
upperback -0.254968 -2.99746 2.04756
thorax -1.90217 -1.46297 3.56152
lowerneck -12.2249 -14.2571 -15.9949
upperneck 31.2331 -21.4765 13.537
head 16.7713 -9.38945 4.17736
rclavicle -8.7341e-015 -7.95139e-016
rhumerus -28.1451 29.1717 -94.2953
rradius 95.7974
rwrist -27.6391
rhand -43.0679 14.5355
rfingers 7.12502
rthumb -15.9238 -14.8298
lclavicle -8.7341e-015 -7.95139e-016
lhumerus -25.6137 -18.8803 89.0373
lradius 110.883
lwrist 23.2395
lhand -21.6352 75.8315
lfingers 7.12502
lthumb 4.76101 -825.758
rfemur -8.59712 -3.92444 26.4117
rtibia 15.9453
rfoot -16.9592 -39.0631
rtoes 27.6739
lfemur -19.139 1.78166 -11.0475
ltibia 29.7243
lfoot -34.3951 38.3477
ltoes 29.0622
685
root -12.1612 17.5902 -7.89682 2.16578 40.1085 356.039
lowerback 3.49562 -2.21986 -2.22441
upperback -0.137119 -3.00585 2.12547
thorax -1.87049 -1.46985 3.58167
lowerneck -12.3608 -14.1329 -15.8013
upperneck 31.246 -21.3082 13.44
head 16.7245 -9.30663 4.14128
rclavicle -4.61988e-014 -5.61567e-015
rhumerus -28.1036 29.6881 -94.4678
rradius 96.3288
rwrist -27.9864
rhand -43.509 15.3401
rfingers 7.12502
rthumb -16.3484 -13.9908
lclavicle -4.61988e-014 -5.61567e-015
lhumerus -25.6171 -18.3326 88.6815
lradius 111.649
lwrist 23.2114
lhand -21.4162 76.1294
lfingers 7.12502
lthumb 4.9725 -826.051
rfemur -7.67779 -3.10684 26.6831
rtibia 15.2213
rfoot -16.3792 -38.0346
rtoes 27.4909
lfemur -18.3641 4.81261 -10.5298
ltibia 30.5129
lfoot -29.6036 38.286
ltoes 24.5187
686
root -12.2636 17.5975 -7.83414 2.35376 38.1874 356.514
lowerback 3.58949 -2.25239 -1.62371
upperback -0.202211 -3.02532 2.06042
thorax -2.02289 -1.48222 3.18475
lowerneck -12.4484 -14.0171 -15.6212
upperneck 31.2529 -21.1715 13.3882
head 16.6813 -9.23583 4.12173
rclavicle -1.11638e-014 -1.95679e-014
rhumerus -27.9996 30.1549 -94.5842
rradius 96.8388
rwrist -28.3454
rhand -43.7496 15.6998
rfingers 7.12502
rthumb -16.5801 -13.6119
lclavicle -1.11638e-014 -1.95679e-014
lhumerus -25.5928 -17.8509 88.4088
lradius 112.429
lwrist 23.1464
lhand -21.1413 75.8726
lfingers 7.12502
lthumb 5.23793 -825.788
rfemur -7.40381 -3.30342 26.7371
rtibia 14.5451
rfoot -15.0396 -36.2163
rtoes 26.0635
lfemur -18.2311 6.64742 -10.2332
ltibia 31.5674
lfoot -25.2813 37.2793
ltoes 23.5215
